<svg width="32" height="32" viewBox="0 0 32 32" fill="none" xmlns="http://www.w3.org/2000/svg">
<path d="M0 10C0 4.47715 4.47715 0 10 0H22C27.5228 0 32 4.47715 32 10V22C32 27.5228 27.5228 32 22 32H10C4.47715 32 0 27.5228 0 22V10Z" fill="#1C1917"/>
<path d="M11 7C11 8.65685 9.65685 10 8 10C6.34315 10 5 8.65685 5 7C5 5.34315 6.34315 4 8 4C9.65685 4 11 5.34315 11 7Z" fill="#4F46E5"/>
<path d="M11 16C11 17.6569 9.65685 19 8 19C6.34315 19 5 17.6569 5 16C5 14.3431 6.34315 13 8 13C9.65685 13 11 14.3431 11 16Z" fill="#4F46E5"/>
<path d="M11 25C11 26.6569 9.65685 28 8 28C6.34315 28 5 26.6569 5 25C5 23.3431 6.34315 22 8 22C9.65685 22 11 23.3431 11 25Z" fill="#4F46E5"/>
</svg>
